# xmcd CD database file
#
# Track frame offsets:
#	150
#	36682
#	68015
#	105862
#	131720
#	165942
#	220500
#
# Disc length: 3640 seconds
#
# Revision: 0
# Processed by: cddbd v1.5.1PL2 Copyright (c) Steve Scherf et al.
# Submitted via: CDex 1.51
#
DISCID=560e3607
DTITLE=Michel Petrucciani - Power of Three
DYEAR=1987
DGENRE=Jazz
TTITLE0=Limbo (Wayne Shorter)
TTITLE1=Careful (Jim Hall)
TTITLE2=Morning Blues (Michel Petrucciani)
TTITLE3=Waltz New (Jame S. Hall)
TTITLE4=Beautiful Love (Gillepsie)
TTITLE5=In A Sentimental Mood (Kurtz)
TTITLE6=Bimini (Jame S. Hall)
EXTD=YEAR: 1987
EXTT0=
EXTT1=
EXTT2=
EXTT3=
EXTT4=
EXTT5=
EXTT6=
PLAYORDER=
